<?xml version="1.0" standalone="no"?>
<!DOCTYPE svg PUBLIC "-//W3C//DTD SVG 20010904//EN"
 "http://www.w3.org/TR/2001/REC-SVG-20010904/DTD/svg10.dtd">
<svg version="1.0" xmlns="http://www.w3.org/2000/svg"
 width="1479.000000pt" height="1479.000000pt" viewBox="0 0 1479.000000 1479.000000"
 preserveAspectRatio="xMidYMid meet">
<metadata>
Created by potrace 1.11, written by Peter Selinger 2001-2013
</metadata>
<g transform="translate(0.000000,1479.000000) scale(0.100000,-0.100000)"
fill="#000000" stroke="none">
<path d="M7150 14638 c-30 -22 -67 -50 -81 -62 -15 -12 -40 -31 -55 -43 -16
-13 -56 -44 -89 -70 -34 -27 -78 -61 -99 -78 -22 -16 -53 -41 -70 -55 -17 -14
-38 -30 -46 -37 -35 -27 -145 -118 -150 -123 -3 -3 -34 -28 -70 -55 -36 -28
-67 -53 -70 -56 -3 -3 -50 -44 -105 -91 -55 -47 -143 -129 -195 -183 -421
-433 -498 -490 -682 -499 -113 -6 -280 54 -363 131 -11 10 -36 31 -55 47 -19
15 -66 58 -105 95 -38 36 -95 87 -125 111 -30 25 -57 47 -60 51 -3 3 -23 16
-45 29 -22 13 -55 32 -72 42 l-33 19 -25 -53 c-76 -164 -92 -357 -60 -733 25
-282 24 -475 0 -610 -11 -57 -81 -215 -105 -235 -3 -3 -17 -21 -30 -40 -25
-37 -125 -164 -150 -190 -8 -9 -41 -45 -72 -81 -32 -36 -77 -86 -100 -111
-232 -247 -547 -679 -661 -905 -26 -51 -43 -93 -39 -93 4 0 2 -4 -4 -8 -9 -6
-55 -126 -69 -182 -2 -8 -7 -24 -10 -36 -4 -13 0 -25 9 -33 9 -8 16 -11 16 -8
0 5 91 -34 265 -113 141 -63 358 -178 363 -191 2 -5 8 -9 14 -9 5 0 29 -13 53
-30 24 -16 46 -30 50 -30 5 0 64 -44 150 -113 118 -94 305 -316 345 -409 6
-13 14 -30 20 -38 19 -30 85 -193 95 -236 2 -11 11 -46 19 -79 8 -33 17 -80
21 -105 4 -25 9 -56 11 -70 2 -14 7 -87 10 -164 5 -101 3 -140 -5 -146 -13 -8
-302 -5 -338 3 -11 3 -43 9 -70 13 -118 17 -398 132 -464 190 -8 8 -20 14 -25
14 -5 0 -22 11 -39 24 -16 13 -70 55 -120 92 -76 57 -208 165 -225 185 -18 20
-122 90 -154 103 -43 18 -126 22 -126 6 0 -25 97 -376 120 -435 6 -16 10 -30
9 -30 -3 0 11 -47 21 -70 5 -11 18 -47 29 -80 72 -219 212 -532 309 -695 12
-19 29 -48 38 -65 52 -95 232 -342 290 -400 14 -14 23 -25 20 -25 -3 0 42 -47
101 -106 102 -102 188 -176 303 -260 l55 -41 21 26 c11 14 31 44 44 66 43 72
94 150 102 153 5 2 8 8 8 14 0 16 58 87 117 145 91 89 178 130 294 140 131 10
244 -43 382 -180 110 -109 211 -242 295 -387 28 -47 166 -325 193 -385 37 -86
99 -272 130 -390 11 -44 23 -87 26 -95 3 -8 7 -22 8 -30 1 -8 5 -33 10 -55 23
-114 29 -175 29 -325 0 -175 -6 -220 -42 -305 -21 -50 -34 -67 -100 -133 -105
-106 -240 -134 -397 -85 -41 13 -75 28 -75 33 0 6 -6 10 -14 10 -12 0 -192
121 -206 139 -3 3 -15 12 -28 19 -73 41 -103 52 -143 55 -51 2 -50 6 -20 -103
12 -41 24 -85 26 -96 10 -44 97 -323 136 -434 22 -63 41 -119 42 -125 6 -22
105 -279 132 -340 7 -16 30 -70 51 -120 40 -93 199 -412 249 -500 15 -27 51
-88 80 -135 28 -47 58 -96 66 -110 7 -14 16 -27 19 -30 3 -3 34 -48 69 -100
55 -81 175 -244 191 -260 3 -3 25 -30 50 -60 92 -112 115 -137 243 -268 50
-51 95 -91 101 -89 5 2 14 16 19 33 4 16 12 38 17 49 18 40 60 152 60 158 0 4
11 31 25 61 14 30 25 61 25 68 0 8 4 18 8 24 5 5 19 38 32 74 13 36 29 79 36
95 41 95 163 486 190 610 21 91 42 211 59 331 5 34 17 230 16 269 0 42 -12
247 -16 275 -2 19 -7 67 -11 105 -3 39 -8 73 -10 77 -3 4 -7 29 -10 55 -2 26
-7 59 -9 73 -3 14 -8 41 -11 60 -3 19 -14 82 -25 140 -11 58 -22 116 -25 130
-2 14 -22 113 -44 220 -22 107 -43 206 -45 220 -3 14 -8 39 -12 55 -3 17 -7
39 -9 50 -2 11 -5 31 -8 45 -4 14 -13 63 -22 110 -9 47 -17 90 -19 95 -1 6 -5
28 -9 50 -4 22 -16 83 -26 135 -23 114 -29 146 -37 185 -7 40 -9 47 -16 65 -3
8 -8 29 -11 45 -4 17 -9 41 -12 55 -3 14 -7 32 -8 40 -1 8 -5 22 -8 30 -3 8
-12 38 -18 65 -13 49 -40 143 -65 220 -48 149 -131 318 -193 395 -36 45 -112
122 -207 211 -119 111 -226 255 -367 495 -140 236 -275 542 -338 764 -26 91
-27 94 -29 100 -3 9 -22 84 -26 105 -2 11 -9 38 -14 60 -5 22 -12 54 -15 70
-3 17 -7 44 -10 60 -9 46 -15 86 -21 135 -2 25 -7 68 -11 95 -13 112 -19 452
-9 560 11 119 23 201 36 264 5 24 7 46 5 49 -3 2 1 17 10 33 8 16 13 29 10 29
-2 0 0 16 6 36 5 20 11 46 14 57 5 30 24 89 35 112 6 12 11 27 13 35 2 8 9 29
15 45 7 17 19 48 27 70 22 61 127 265 136 265 4 0 8 5 8 12 0 11 79 136 107
168 7 8 35 44 63 80 112 144 318 335 500 463 52 37 100 72 107 77 7 6 15 10
18 10 4 0 26 14 50 30 24 17 46 30 50 30 3 0 22 11 43 23 59 38 214 117 228
117 7 0 14 4 16 8 2 4 32 20 68 36 36 16 79 34 95 42 17 7 55 22 85 34 30 11
64 25 75 30 65 29 146 57 150 50 2 -4 19 -11 37 -15 18 -4 35 -9 38 -10 3 -1
18 -7 33 -13 16 -7 30 -12 33 -12 2 0 26 -9 52 -21 26 -12 56 -25 67 -29 123
-48 384 -182 515 -265 128 -80 316 -216 332 -239 4 -6 8 -8 8 -5 0 25 360
-339 394 -400 5 -9 16 -22 24 -30 24 -25 129 -186 176 -271 70 -125 175 -370
160 -370 -4 0 -2 -6 3 -12 24 -31 86 -291 99 -414 3 -33 8 -63 11 -67 9 -15
11 -429 2 -517 -12 -124 -34 -293 -45 -345 -3 -17 -10 -51 -29 -140 -57 -277
-206 -632 -393 -936 -54 -88 -155 -243 -162 -249 -4 -3 -9 -12 -13 -20 -4 -8
-27 -42 -52 -75 -25 -33 -48 -67 -52 -75 -3 -8 -9 -17 -13 -20 -4 -3 -37 -50
-75 -105 -37 -55 -92 -134 -121 -176 -71 -103 -137 -235 -159 -319 -2 -8 -10
-34 -19 -58 -8 -23 -16 -46 -16 -50 0 -4 -5 -23 -10 -44 -24 -87 -59 -271 -66
-343 -1 -16 -3 -30 -4 -30 -2 0 -7 -26 -14 -80 -3 -27 -8 -68 -11 -90 -10 -70
-34 -302 -41 -395 -11 -141 -14 -170 -18 -220 -6 -59 -15 -165 -21 -245 -3
-27 -7 -72 -9 -100 -3 -27 -8 -88 -11 -135 -4 -47 -8 -105 -10 -130 -2 -25 -6
-81 -9 -125 -4 -44 -9 -114 -12 -155 -3 -41 -7 -100 -8 -130 -2 -30 -7 -102
-10 -160 -15 -233 -29 -510 -40 -810 -13 -331 -17 -465 -21 -752 -2 -163 -6
-301 -8 -305 -3 -5 -2 -26 2 -48 4 -22 4 -78 1 -123 -3 -46 -2 -88 1 -93 3 -6
3 -29 -1 -53 -3 -24 -3 -53 1 -64 5 -12 4 -24 -2 -27 -5 -4 -7 -11 -3 -16 3
-6 8 -121 10 -257 7 -455 18 -727 49 -1212 3 -41 7 -102 10 -135 3 -33 7 -89
10 -125 9 -120 22 -261 30 -335 4 -27 8 -68 10 -90 6 -58 17 -167 21 -190 1
-11 3 -27 3 -35 2 -26 28 40 61 155 17 61 36 121 40 135 8 22 26 88 36 130 1
8 14 57 28 107 14 51 28 103 31 115 5 24 110 464 145 608 21 85 26 108 34 145
4 19 53 221 61 255 17 67 79 300 96 360 11 41 21 80 22 85 2 6 7 24 14 40 6
17 19 59 29 95 9 36 22 71 27 78 5 6 7 12 4 12 -3 0 10 44 30 98 19 53 36 102
37 107 1 6 9 26 18 46 9 20 19 47 23 60 4 13 15 42 25 64 9 22 28 65 41 95
120 282 307 578 487 770 38 41 68 77 66 79 -2 2 -32 5 -66 7 -35 1 -81 6 -103
9 -22 4 -49 8 -60 10 -88 10 -274 92 -340 150 -22 19 -49 43 -60 53 -97 85
-205 301 -240 475 -30 154 -34 202 -35 407 -2 241 11 371 65 665 3 17 11 48
17 70 5 22 12 51 15 65 2 14 17 77 34 140 156 605 432 1221 697 1560 20 25 72
81 118 126 75 74 109 96 234 154 23 11 149 5 196 -8 23 -7 58 -23 78 -37 20
-14 40 -25 45 -25 14 0 126 -124 168 -185 42 -62 91 -144 138 -230 68 -124
120 -210 127 -213 4 -2 8 -10 8 -18 0 -8 9 -22 20 -31 11 -10 20 -23 20 -30 0
-7 4 -13 8 -13 5 0 15 -11 22 -25 7 -13 17 -22 22 -19 23 14 438 661 438 682
0 6 4 12 8 14 7 3 63 97 118 198 10 19 22 37 27 38 4 2 7 11 7 20 0 8 7 23 15
32 19 21 244 468 302 600 66 148 86 195 88 200 1 3 5 14 10 25 4 11 28 72 52
135 24 63 48 124 53 135 9 21 111 323 115 340 1 6 8 30 15 55 8 25 14 47 15
50 0 3 6 21 12 40 27 85 24 108 -9 78 -8 -7 -25 -20 -40 -28 -43 -25 -132 -86
-148 -101 -8 -8 -31 -26 -50 -39 -19 -13 -37 -27 -40 -30 -3 -3 -30 -25 -60
-50 -30 -25 -60 -49 -67 -55 -6 -5 -27 -22 -45 -37 -18 -15 -53 -44 -78 -64
-25 -21 -90 -70 -145 -111 -55 -40 -104 -77 -110 -81 -5 -4 -41 -26 -80 -48
-157 -92 -308 -150 -440 -171 -16 -2 -44 -8 -61 -12 -17 -5 -103 -8 -190 -7
l-159 1 0 90 c-1 93 7 171 31 315 7 46 55 232 63 245 3 6 6 17 8 25 1 8 7 23
12 35 17 33 34 79 33 88 -1 4 3 7 8 7 6 0 10 6 10 14 0 22 105 204 157 271 13
17 27 35 31 40 72 103 273 298 417 407 109 82 205 148 215 148 6 0 10 3 10 8
0 4 43 34 95 67 53 33 121 77 153 97 31 21 64 41 72 45 20 10 100 64 100 68 0
11 -101 198 -128 237 -17 26 -32 51 -32 56 0 6 -4 12 -8 14 -4 2 -28 32 -52
68 -25 36 -47 67 -50 70 -3 3 -25 32 -50 65 -25 33 -47 62 -51 65 -3 3 -52 66
-110 140 -57 74 -109 142 -116 150 -7 8 -34 42 -60 76 -48 60 -150 179 -188
220 -110 115 -266 320 -328 431 -86 152 -103 289 -82 668 14 252 6 495 -17
539 -6 12 -10 21 -8 21 2 0 -2 18 -9 40 -21 67 -62 143 -100 185 l-36 41 -50
-19 c-78 -29 -125 -53 -188 -94 -32 -21 -62 -38 -67 -38 -5 0 -10 -3 -12 -8
-6 -14 -223 -149 -298 -184 -102 -48 -210 -81 -271 -82 -9 0 -52 31 -94 69
-43 39 -83 75 -89 80 -77 68 -110 98 -160 140 -32 28 -68 58 -80 68 -48 42
-233 195 -276 230 -8 7 -29 23 -46 37 -17 14 -43 34 -58 45 -16 11 -33 25 -40
30 -6 6 -40 33 -76 60 -36 28 -71 56 -78 63 -7 6 -17 12 -20 12 -4 0 -18 10
-32 23 -14 12 -60 47 -103 77 -44 30 -91 64 -105 76 -50 39 -371 254 -380 254
-5 0 -17 9 -27 20 -10 11 -22 20 -27 20 -5 0 -36 18 -68 40 -32 22 -63 40 -67
40 -4 0 -33 -19 -63 -42z"/>
<path d="M7237 11053 c-77 -85 -158 -172 -202 -218 -27 -29 -95 -101 -150
-161 -55 -59 -111 -120 -125 -135 -62 -67 -206 -232 -260 -299 -25 -30 -47
-57 -50 -60 -3 -3 -45 -58 -93 -122 l-87 -117 22 -38 c12 -21 102 -158 200
-305 98 -147 178 -272 178 -278 0 -5 5 -10 10 -10 6 0 15 -10 20 -22 5 -13 30
-54 55 -93 25 -38 48 -77 52 -85 3 -8 14 -26 23 -40 53 -78 218 -422 255 -530
1 -3 7 -17 13 -32 24 -57 97 -308 94 -321 -1 -4 2 -16 7 -25 5 -10 12 -38 16
-62 3 -25 10 -60 15 -79 5 -19 7 -38 4 -43 -3 -4 -2 -8 3 -8 16 0 116 113 159
181 38 58 96 163 99 179 1 3 15 34 32 71 17 36 34 76 38 90 4 13 11 29 15 34
4 6 13 28 20 50 7 22 16 45 20 50 4 6 11 21 15 34 4 13 14 40 23 60 9 20 16
38 17 41 19 71 143 302 277 515 120 192 224 375 214 375 -3 0 3 16 14 35 11
20 20 44 20 53 0 10 5 23 12 30 7 7 9 12 5 12 -3 0 -3 10 2 23 10 25 23 95 22
112 -2 38 -9 95 -16 120 -8 31 -74 166 -86 175 -3 3 -11 15 -18 27 -56 108
-414 483 -645 678 -65 55 -135 115 -155 132 -44 40 -53 40 -84 6z"/>
</g>
</svg>
